#!OML:ASF F:\VICON\USERDATA\INSTALL\rory3\rory3.ASF
:FULLY-SPECIFIED
:DEGREES
80
root 0.7836813303591676 17.972421927850533 34.125079177697536 2.6440381898130525 -0.4693001904176033 1.3996744699855785
lfemur -9.951953173841378 1.3242878357369672 -22.651619460498907
ltibia 47.7559548781675
lfoot 2.663549496357292 -13.729899178835433
ltoes -6.842651532099399
rfemur -30.43524875718078 3.9671387368230207 27.17629207751607
rtibia 57.49363886830576
rfoot 0.9507644653975564 -4.188364743715596
rtoes -0.5307770316009557
lowerback 13.710925105515688 -0.89132092133686 -0.3578044224762347
upperback -1.1069207404576633 -1.024665665621585 1.6943615764311413
thorax -9.307191895896674 -0.45609396680096737 1.4847294147904582
lowerneck -20.236275250302274 -4.107757179369173 -2.045569135017534
upperneck 16.295836857438672 -5.289377762502335 2.7187525579659266
head 8.343726518551366 -2.598022290007772 0.5872069289860798
lclavicle -1.9521729781560437e-15 1.1013548979497733e-15
lhumerus -46.767816698888545 -10.341330069076971 96.78210390928481
lradius 111.32559548350157
lwrist 46.23425940696539
lhand -18.263131258505418 6.0807214499107385
lfingers 7.125020000000001
lthumb 8.33016932349978 35.66191243498625
rclavicle -1.952176533109819e-15 1.1013521049827522e-15
rhumerus -55.98254587413704 11.716541327202025 -101.39190036219709
rradius 112.93239948315546
rwrist -15.06458316385239
rhand -24.423508887181523 -98.46105474548037
rfingers 7.125020000000001
rthumb 3.526948211482748 15.248338827865428
81
root 0.7877911781885408 17.92856640483363 35.406710408908786 2.365561703930106 -0.38344140834241114 1.5312609308480578
lfemur -9.548956607422461 1.880888002799682 -21.618561085661746
ltibia 54.103475960303015
lfoot 2.582093422645423 -14.008277442875158
ltoes -7.491667321434527
rfemur -30.001906093919708 3.777229836426261 27.379552455926074
rtibia 60.807163733904275
rfoot 0.6885551125292304 -4.108713942313689
rtoes -0.8921874787085038
lowerback 13.856069654048992 -0.8371556570598531 -0.297221375470631
upperback -0.9327176019494611 -0.8101104023700416 1.7049166310014763
thorax -9.276934727520182 -0.40314830976117366 1.342037885940839
lowerneck -20.259881249500516 -4.044883019572862 -2.037788890596884
upperneck 16.236112571754152 -5.310223622813889 2.695669767210573
head 8.332894053575568 -2.6236474235623226 0.5679921952983068
lclavicle -1.9521729781560437e-15 1.1013548979497733e-15
lhumerus -47.895324835665456 -10.128123543500234 96.94812713148971
lradius 111.1536828649633
lwrist 46.09204327202169
lhand -18.23181987459548 6.091800210817709
lfingers 7.125020000000001
lthumb 8.364401050413635 35.79870928221017
rclavicle -1.952176533109819e-15 1.1013521049827522e-15
rhumerus -55.68244992374076 11.373063882787116 -101.09659024132839
rradius 112.81108206504206
rwrist -14.891209222982996
rhand -24.433640143865137 -97.73088625606621
rfingers 7.125020000000001
rthumb 3.4092979948449926 14.734881016725717
82
root 0.7768421470504271 17.85171121344571 35.36640544790277 1.9959665279994045 -0.5064340989576135 1.4608995592150604
lfemur -12.423424671907236 2.0873788601933763 -21.65461333291764
ltibia 60.47607341050452
lfoot 1.3128002853700855 -13.83167390581499
ltoes -8.029910542203194
rfemur -28.28055993242547 4.076378522240197 27.86535735503091
rtibia 64.22950992830015
rfoot 0.49314533241968395 -4.437849147377472
rtoes -1.4021065262197225
lowerback 14.041826073807353 -0.7659481948880622 -0.18071122370959558
upperback -0.7638981501001012 -0.5823973667809881 1.6985565933285747
thorax -9.277146888256691 -0.3368586429148339 1.2380327767196933
lowerneck -20.280640040420497 -4.004428394112136 -2.019704202411819
upperneck 16.219655120815794 -5.298748836494299 2.708780598122984
head 8.331405152666163 -2.6573737411146716 0.5485966548390474
lclavicle -1.9521729781560437e-15 1.1013548979497733e-15
lhumerus -49.01761126290124 -9.982374983127691 97.11751217206756
lradius 110.6586726572835
lwrist 46.257503393913304
lhand -18.21116026629845 6.068279700627321
lfingers 7.125020000000001
lthumb 8.452954356104915 35.95733004618513
rclavicle -1.952176533109819e-15 1.1013521049827522e-15
rhumerus -55.19502794230757 11.11563804164625 -100.89457878493832
rradius 112.7349264077295
rwrist -14.746220416071745
rhand -24.31282150894777 -95.78332254645372
rfingers 7.125020000000001
rthumb 3.1660060013747593 14.431103031911757
83
root 0.7696635668001277 17.796796579165093 36.33173374046592 1.7768011089319806 -0.4153483004873999 1.4141802347639243
lfemur -13.027019170919917 2.7843557888124164 -20.074763849211045
ltibia 66.328509143004
lfoot 1.0499223046904078 -12.952822334556835
ltoes -8.50981294349612
rfemur -26.176153588260338 4.6959378863334935 28.581225987533845
rtibia 67.55539610569343
rfoot 0.9881531512763186 -4.6080745808609445
rtoes -1.2138065488826375
lowerback 14.290559780516121 -0.6618431383797294 0.008213623636599499
upperback -0.5981250509858479 -0.2588265159146166 1.7436870527905137
thorax -9.201271924397581 -0.18963832268554792 1.203935817020509
lowerneck -20.32010468971465 -4.02719560062518 -2.0151499758629536
upperneck 16.065002834244424 -5.398894698364673 2.6604224856746854
head 8.310936793677312 -2.6995130867280994 0.5289414994022832
lclavicle -1.9521729781560437e-15 1.1013548979497733e-15
lhumerus -49.445425196470595 -9.749551538963058 97.3596688864298
lradius 110.1131276770685
lwrist 46.16697857453612
lhand -18.09727374284532 6.183716121114481
lfingers 7.125020000000001
lthumb 8.41469096609908 35.97168552816368
rclavicle -1.952176533109819e-15 1.1013521049827522e-15
rhumerus -54.46403447105794 10.991098397826594 -100.77052811174494
rradius 112.67614115741294
rwrist -14.666539593009828
rhand -24.37724975032967 -97.87058197246381
rfingers 7.125020000000001
rthumb 3.30850451932089 14.823170236799045
